<svg width="387" height="398" viewBox="0 0 387 398" fill="none" xmlns="http://www.w3.org/2000/svg">
<path opacity="0.8" d="M203.658 149.616L202.896 151.465L204.745 152.228L226.17 161.063L228.019 161.826L228.781 159.977L229.217 158.92C232.335 151.695 235.564 146.031 238.88 141.867C242.176 137.729 245.995 134.615 250.335 132.486L250.343 132.482L250.35 132.478C254.78 130.26 260.197 128.588 266.637 127.499C273.369 126.417 279.541 124.515 285.14 121.778C290.831 119.05 295.839 115.349 300.154 110.683C304.55 106.02 308.125 100.302 310.902 93.5677C314.853 83.9887 316.186 74.4737 314.841 65.058C313.556 55.6713 309.74 47.1397 303.441 39.4903C297.177 31.8342 288.639 25.8177 277.919 21.3967C268.027 17.3175 258.165 15.5383 248.35 16.1017L248.345 16.102C238.566 16.6924 229.615 19.6976 221.527 25.1097L221.527 25.1097L221.518 25.1161C213.44 30.5886 207.034 38.4714 202.259 48.6615L201.37 50.5598L203.308 51.3591L225.804 60.6366L227.532 61.3491L228.36 59.6735C231.622 53.0692 235.508 48.4352 239.944 45.5929C244.488 42.6815 249.231 41.1783 254.201 41.0316C259.282 40.8816 264.12 41.7594 268.736 43.663C274.067 45.8613 278.41 48.9438 281.813 52.896C285.207 56.8387 287.347 61.3233 288.254 66.3814C289.147 71.3671 288.503 76.6029 286.221 82.1357C284.374 86.6151 281.918 90.3204 278.873 93.2907L278.863 93.2998L278.854 93.309C275.82 96.346 272.409 98.7183 268.614 100.438C264.779 102.127 260.752 103.306 256.53 103.974C249.116 105.101 242.375 106.916 236.322 109.434C230.1 112.023 224.399 116.351 219.202 122.329C213.972 128.346 208.954 137.116 204.108 148.526L204.104 148.535L204.1 148.545L203.658 149.616ZM204.354 211.088L204.362 211.087L204.369 211.086C207.739 210.555 210.788 209.262 213.486 207.215C216.275 205.168 218.346 202.503 219.684 199.26C221.705 194.359 221.68 189.378 219.625 184.441C217.571 179.503 214.057 175.974 209.155 173.953C204.254 171.932 199.273 171.957 194.336 174.011C189.398 176.065 185.869 179.58 183.848 184.482C181.827 189.383 181.852 194.363 183.906 199.301C185.96 204.239 189.475 207.767 194.377 209.789C197.662 211.144 201.001 211.593 204.354 211.088Z" fill="#5CFF6D" stroke="#D86060" stroke-width="4"/>
<path opacity="0.8" d="M167.667 166.443L168.701 168.155L170.413 167.122L190.254 155.144L191.966 154.111L190.932 152.398L190.342 151.42C186.385 144.618 183.749 138.654 182.372 133.513C181.004 128.403 180.769 123.481 181.637 118.724L181.638 118.716L181.64 118.708C182.489 113.827 184.364 108.478 187.317 102.651C190.448 96.5949 192.587 90.5006 193.714 84.3716C194.904 78.1734 194.904 71.946 193.717 65.7028C192.579 59.3957 190.107 53.1217 186.342 46.8855C180.987 38.0157 174.129 31.2878 165.759 26.773C157.446 22.226 148.316 20.2228 138.42 20.7412C128.539 21.2283 118.626 24.5176 108.699 30.5106C99.5391 36.0402 92.2458 42.9138 86.8653 51.141L86.862 51.1459C81.5245 59.3602 78.6204 68.3448 78.1652 78.0658L78.1652 78.0658L78.1647 78.0772C77.7642 87.8257 80.2952 97.6631 85.6517 107.56L86.6495 109.403L88.4442 108.32L109.277 95.7438L110.877 94.7779L110.021 93.1162C106.65 86.5669 105.233 80.6874 105.584 75.4307C105.944 70.0461 107.554 65.3385 110.391 61.2546C113.29 57.0798 116.872 53.7106 121.147 51.1302C126.083 48.1503 131.143 46.4898 136.344 46.1027C141.532 45.7166 146.411 46.6616 151.017 48.9391C155.558 51.1839 159.385 54.8144 162.478 59.938C164.982 64.0861 166.502 68.2634 167.08 72.478L167.082 72.4909L167.084 72.5038C167.723 76.7486 167.603 80.9021 166.73 84.9762C165.809 89.0642 164.364 93.0027 162.391 96.7952C158.89 103.427 156.343 109.927 154.77 116.292C153.154 122.833 153.245 129.991 154.964 137.724C156.694 145.506 160.763 154.754 167.058 165.433L167.063 165.442L167.068 165.451L167.667 166.443Z" fill="#5CFF6D" stroke="#D86060" stroke-width="4"/>
<path opacity="0.8" d="M161.851 205.386L163.85 205.447L163.911 203.448L164.62 180.283L164.682 178.284L162.683 178.223L161.541 178.188C153.68 177.819 147.24 176.796 142.174 175.162C137.14 173.538 132.879 171.064 129.355 167.753L129.349 167.748L129.343 167.742C125.704 164.38 122.229 159.901 118.938 154.259C115.551 148.342 111.593 143.238 107.058 138.964C102.497 134.601 97.2668 131.222 91.379 128.83C85.4644 126.362 78.8529 125.033 71.5718 124.811C61.2161 124.494 51.843 126.602 43.508 131.182C35.1771 135.696 28.5395 142.276 23.6036 150.87C18.6499 159.433 16.0322 169.544 15.6775 181.134C15.3501 191.829 17.1648 201.685 21.1544 210.67L21.1568 210.675C25.1589 219.616 31.1287 226.932 39.0462 232.59L39.0462 232.59L39.0556 232.597C47.0258 238.224 56.6618 241.438 67.8812 242.311L69.9713 242.473L70.0354 240.378L70.7799 216.055L70.8371 214.187L68.9771 214.003C61.6465 213.28 55.9394 211.279 51.7149 208.131C47.3877 204.907 44.3079 200.999 42.4173 196.4C40.4845 191.699 39.5989 186.862 39.7517 181.871C39.9281 176.108 41.2801 170.957 43.7778 166.378C46.2695 161.811 49.7108 158.227 54.1238 155.594C58.4736 152.999 63.6002 151.755 69.5822 151.938C74.4252 152.086 78.7587 153.077 82.6124 154.879L82.6242 154.884L82.6361 154.889C86.5481 156.657 89.9713 159.012 92.9194 161.956C95.8529 164.949 98.3764 168.3 100.491 172.016C104.161 178.556 108.237 184.222 112.729 188.998C117.346 193.906 123.408 197.714 130.835 200.468C138.31 203.239 148.286 204.841 160.672 205.35L160.682 205.35L160.693 205.35L161.851 205.386Z" fill="#5CFF6D" stroke="#D86060" stroke-width="4"/>
<path opacity="0.8" d="M190.776 232.969L191.903 231.316L190.25 230.19L171.102 217.134L169.449 216.007L168.323 217.66L167.679 218.604C163.141 225.033 158.815 229.912 154.713 233.304C150.636 236.675 146.259 238.936 141.573 240.127L141.565 240.129L141.557 240.131C136.765 241.391 131.121 241.912 124.594 241.652C117.784 241.326 111.352 241.917 105.31 243.443C99.1792 244.942 93.5168 247.534 88.334 251.211C83.0725 254.87 78.3969 259.73 74.2934 265.749C68.4569 274.309 65.1938 283.345 64.5724 292.835C63.8978 302.286 65.8762 311.421 70.4664 320.204C75.0217 328.985 82.1383 336.63 91.7194 343.162C100.56 349.19 109.845 352.961 119.565 354.429L119.571 354.43C129.262 355.864 138.64 354.765 147.668 351.133L147.668 351.133L147.679 351.129C156.71 347.436 164.601 341.04 171.37 332.05L172.631 330.376L170.899 329.195L150.794 315.487L149.249 314.434L148.095 315.903C143.543 321.695 138.786 325.43 133.86 327.299C128.815 329.213 123.864 329.708 118.97 328.828C113.967 327.93 109.413 326.075 105.288 323.262C100.524 320.014 96.9075 316.104 94.3909 311.536C91.8804 306.979 90.7094 302.15 90.863 297.014C91.0143 291.951 92.7225 286.96 96.0939 282.015C98.8234 278.012 101.989 274.891 105.581 272.611L105.592 272.604L105.603 272.597C109.196 270.249 113.023 268.63 117.091 267.728C121.191 266.864 125.374 266.539 129.643 266.754C137.131 267.177 144.101 266.788 150.543 265.569C157.164 264.316 163.634 261.254 169.95 256.473C176.306 251.661 183.021 244.112 190.111 233.943L190.117 233.935L190.123 233.926L190.776 232.969Z" fill="#5CFF6D" stroke="#D86060" stroke-width="4"/>
<path opacity="0.8" d="M228.516 225.92L227.895 224.018L225.994 224.639L203.963 231.832L202.062 232.453L202.682 234.354L203.037 235.44C205.357 242.96 206.58 249.364 206.762 254.684C206.942 259.971 206.06 264.819 204.142 269.257L204.139 269.265L204.136 269.272C202.207 273.836 199.174 278.624 194.983 283.635C190.566 288.829 187.108 294.283 184.627 300C182.07 305.77 180.666 311.837 180.413 318.187C180.099 324.588 181.093 331.258 183.353 338.183C186.569 348.032 191.733 356.133 198.869 362.42C205.942 368.725 214.385 372.736 224.143 374.463C233.879 376.218 244.278 375.249 255.301 371.65C265.473 368.329 274.128 363.278 281.226 356.477L281.23 356.472C288.283 349.674 293.139 341.576 295.775 332.208L295.776 332.208L295.779 332.197C298.368 322.79 298.121 312.636 295.135 301.786L294.579 299.764L292.586 300.415L269.453 307.968L267.677 308.548L268.135 310.36C269.943 317.501 269.996 323.548 268.469 328.59C266.904 333.755 264.273 337.978 260.588 341.317C256.822 344.73 252.572 347.204 247.826 348.754C242.345 350.544 237.04 351.02 231.886 350.224C226.744 349.43 222.205 347.409 218.231 344.151C214.314 340.94 211.404 336.539 209.547 330.85C208.043 326.244 207.504 321.831 207.892 317.595L207.893 317.582L207.894 317.569C208.229 313.289 209.283 309.27 211.052 305.498C212.872 301.723 215.168 298.212 217.946 294.962C222.852 289.291 226.799 283.534 229.768 277.688C232.818 271.679 234.344 264.685 234.414 256.764C234.484 248.793 232.606 238.865 228.882 227.041L228.879 227.031L228.875 227.021L228.516 225.92Z" fill="#5CFF6D" stroke="#D86060" stroke-width="4"/>
<path opacity="0.8" d="M245.389 190.515L243.479 189.919L242.884 191.828L235.982 213.952L235.386 215.861L237.295 216.457L238.386 216.797C245.859 219.263 251.788 221.977 256.229 224.911C260.642 227.828 264.083 231.355 266.589 235.49L266.593 235.497L266.597 235.504C269.2 239.72 271.345 244.967 273 251.285C274.674 257.895 277.116 263.874 280.338 269.208C283.56 274.635 287.691 279.295 292.72 283.18C297.755 287.145 303.768 290.2 310.721 292.369C320.612 295.455 330.207 295.94 339.465 293.766C348.702 291.655 356.863 287.098 363.925 280.145C370.996 273.226 376.232 264.189 379.685 253.119C382.872 242.905 383.77 232.924 382.339 223.198L382.338 223.192C380.883 213.505 377.097 204.855 370.989 197.279L370.989 197.279L370.982 197.27C364.815 189.709 356.395 184.027 345.822 180.174L343.852 179.456L343.228 181.457L335.981 204.687L335.424 206.472L337.167 207.148C344.034 209.812 348.994 213.272 352.219 217.439C355.521 221.707 357.439 226.298 358.025 231.235C358.625 236.283 358.18 241.18 356.693 245.946C354.975 251.45 352.29 256.05 348.655 259.79C345.029 263.52 340.751 266.049 335.793 267.4C330.907 268.732 325.634 268.554 319.921 266.772C315.296 265.329 311.387 263.211 308.159 260.441L308.149 260.433L308.139 260.424C304.845 257.672 302.18 254.484 300.13 250.856C298.108 247.186 296.577 243.28 295.538 239.133C293.758 231.848 291.352 225.295 288.307 219.489C285.178 213.521 280.361 208.226 273.946 203.579C267.489 198.903 258.309 194.682 246.515 190.866L246.505 190.863L246.495 190.86L245.389 190.515Z" fill="#5CFF6D" stroke="#D86060" stroke-width="4"/>
</svg>
