<svg width="428" height="420" viewBox="0 0 428 420" fill="none" xmlns="http://www.w3.org/2000/svg">
<g filter="url(#filter0_f_184_234)">
<path opacity="0.8" d="M220.507 164.379L220.949 163.307C225.756 151.989 230.677 143.434 235.712 137.642C240.747 131.849 246.206 127.729 252.09 125.281C257.974 122.833 264.557 121.056 271.837 119.95C276.232 119.255 280.429 118.027 284.429 116.264C288.453 114.442 292.067 111.928 295.269 108.722C298.531 105.541 301.131 101.6 303.07 96.8982C305.475 91.0658 306.193 85.4426 305.222 80.0286C304.252 74.6145 301.954 69.802 298.328 65.5911C294.703 61.3802 290.093 58.1212 284.499 55.8141C279.619 53.8015 274.5 52.8743 269.142 53.0324C263.785 53.1906 258.692 54.8161 253.865 57.9089C249.038 61.0017 244.939 65.9613 241.567 72.7876L219.07 63.5101C223.719 53.589 229.909 46.0096 237.639 40.7719C245.43 35.5587 254.038 32.6676 263.465 32.0984C272.951 31.5538 282.515 33.2696 292.156 37.2456C302.631 41.5653 310.878 47.4035 316.896 54.7602C322.975 62.1414 326.629 70.3337 327.861 79.337C329.151 88.3649 327.882 97.521 324.053 106.805C321.354 113.352 317.9 118.856 313.692 123.318C309.543 127.805 304.736 131.359 299.268 133.978C293.86 136.623 287.875 138.472 281.312 139.526C274.725 140.639 269.106 142.361 264.454 144.69C259.828 146.96 255.781 150.271 252.316 154.621C248.85 158.972 245.536 164.812 242.374 172.143L241.932 173.214L220.507 164.379ZM210.139 221.94C205.735 220.123 202.606 216.988 200.753 212.533C198.899 208.078 198.881 203.648 200.697 199.244C202.513 194.84 205.649 191.711 210.104 189.858C214.559 188.004 218.989 187.986 223.393 189.802C227.797 191.618 230.925 194.754 232.779 199.209C234.632 203.664 234.651 208.094 232.835 212.498C231.632 215.414 229.784 217.785 227.29 219.612C224.855 221.463 222.111 222.629 219.057 223.111C216.087 223.557 213.115 223.167 210.139 221.94Z" fill="#2BE6FF"/>
<path opacity="0.8" d="M184.379 179.409L183.781 178.417C177.536 167.824 173.581 158.782 171.916 151.29C170.251 143.798 170.183 136.958 171.712 130.771C173.241 124.585 175.724 118.235 179.162 111.723C181.216 107.776 182.723 103.67 183.683 99.406C184.61 95.0867 184.736 90.6867 184.062 86.2061C183.442 81.6922 181.819 77.2583 179.19 72.9043C175.93 67.5033 171.834 63.5839 166.904 61.1462C161.973 58.7085 156.737 57.6959 151.196 58.1083C145.654 58.5207 140.294 60.2906 135.113 63.418C130.594 66.1461 126.805 69.7114 123.748 74.1138C120.691 78.5162 118.971 83.5774 118.589 89.2974C118.207 95.0174 119.758 101.262 123.243 108.032L102.411 120.608C97.1955 110.972 94.7797 101.49 95.163 92.1593C95.6015 82.7958 98.3935 74.1546 103.539 66.2357C108.74 58.2835 115.804 51.6125 124.733 46.2228C134.432 40.3672 144.029 37.2058 153.523 36.7386C163.071 36.2381 171.832 38.1686 179.804 42.5302C187.831 46.8585 194.44 53.3215 199.63 61.9191C203.289 67.9815 205.663 74.0308 206.75 80.0671C207.892 86.07 207.892 92.0485 206.749 98.0024C205.661 103.923 203.59 109.835 200.537 115.739C197.517 121.698 195.561 127.24 194.669 132.366C193.745 137.436 194.002 142.657 195.44 148.03C196.879 153.403 199.606 159.539 203.621 166.44L204.22 167.432L184.379 179.409Z" fill="#2BE6FF"/>
<path opacity="0.8" d="M176.912 217.387L175.754 217.351C163.468 216.846 153.727 215.26 146.53 212.592C139.334 209.925 133.553 206.27 129.186 201.628C124.82 196.986 120.835 191.453 117.232 185.031C115.031 181.164 112.401 177.67 109.341 174.549C106.216 171.426 102.589 168.932 98.4595 167.067C94.3321 165.137 89.7267 164.094 84.6434 163.939C78.3374 163.746 72.8227 165.058 68.0991 167.877C63.3756 170.695 59.6832 174.543 57.0221 179.42C54.3609 184.298 52.9377 189.762 52.7526 195.81C52.5911 201.087 53.5294 206.203 55.5675 211.161C57.6056 216.118 60.923 220.309 65.5199 223.735C70.1167 227.16 76.2037 229.247 83.7808 229.994L83.0363 254.317C72.1132 253.467 62.8375 250.349 55.2091 244.963C47.5827 239.513 41.8404 232.478 37.9822 223.858C34.126 215.174 32.3575 205.62 32.6765 195.196C33.0232 183.871 35.5766 174.095 40.3369 165.867C45.0992 157.576 51.4754 151.266 59.4655 146.938C67.4575 142.545 76.4726 140.502 86.5106 140.81C93.5887 141.026 99.9577 142.316 105.618 144.679C111.279 146.978 116.3 150.223 120.681 154.415C125.063 158.542 128.904 163.49 132.206 169.259C135.572 175.03 139.165 179.681 142.986 183.211C146.742 186.74 151.267 189.358 156.56 191.066C161.854 192.773 168.488 193.814 176.463 194.187L177.621 194.222L176.912 217.387Z" fill="#2BE6FF"/>
<path opacity="0.8" d="M204.124 245.842L203.471 246.799C196.438 256.886 189.862 264.246 183.742 268.878C177.623 273.51 171.433 276.419 165.171 277.604C158.909 278.788 152.102 279.173 144.75 278.757C140.306 278.532 135.945 278.871 131.669 279.773C127.355 280.728 123.302 282.444 119.509 284.922C115.662 287.364 112.306 290.686 109.441 294.888C105.887 300.101 104.028 305.456 103.864 310.954C103.699 316.452 104.958 321.634 107.639 326.501C110.32 331.368 114.161 335.506 119.161 338.915C123.522 341.888 128.341 343.849 133.616 344.797C138.892 345.745 144.21 345.202 149.57 343.168C154.93 341.135 159.962 337.125 164.667 331.139L184.773 344.847C178.182 353.6 170.565 359.743 161.922 363.278C153.225 366.776 144.206 367.834 134.864 366.451C125.469 365.032 116.463 361.385 107.846 355.51C98.4847 349.127 91.6159 341.717 87.2398 333.279C82.8105 324.805 80.9198 316.036 81.5677 306.972C82.1624 297.872 85.2884 289.173 90.9458 280.875C94.935 275.024 99.4477 270.349 104.484 266.848C109.467 263.311 114.903 260.823 120.792 259.384C126.629 257.909 132.866 257.331 139.505 257.65C146.181 257.916 152.034 257.388 157.065 256.066C162.06 254.796 166.701 252.389 170.988 248.845C175.274 245.301 179.719 240.267 184.322 233.744L184.975 232.786L204.124 245.842Z" fill="#2BE6FF"/>
<path opacity="0.8" d="M241.615 240.54L241.974 241.642C245.668 253.37 247.481 263.072 247.414 270.747C247.346 278.421 245.87 285.1 242.984 290.782C240.099 296.465 236.247 302.09 231.429 307.659C228.538 311.041 226.143 314.701 224.246 318.639C222.369 322.638 221.253 326.896 220.9 331.413C220.485 335.95 221.067 340.636 222.645 345.471C224.603 351.468 227.709 356.21 231.963 359.697C236.217 363.184 241.089 365.352 246.581 366.2C252.072 367.049 257.694 366.533 263.447 364.655C268.465 363.017 272.96 360.398 276.931 356.799C280.903 353.2 283.72 348.657 285.383 343.17C287.045 337.684 286.942 331.25 285.074 323.869L308.207 316.316C311.114 326.88 311.328 336.663 308.85 345.666C306.311 354.69 301.642 362.478 294.842 369.032C287.982 375.607 279.595 380.512 269.681 383.749C258.91 387.265 248.847 388.181 239.493 386.494C230.078 384.828 221.979 380.971 215.196 374.924C208.352 368.896 203.372 361.109 200.255 351.562C198.057 344.831 197.109 338.402 197.412 332.276C197.653 326.17 199.002 320.346 201.459 314.803C203.854 309.28 207.205 303.988 211.512 298.925C215.798 293.801 218.953 288.842 220.978 284.05C223.023 279.32 223.95 274.175 223.761 268.616C223.571 263.057 222.298 256.463 219.943 248.835L219.584 247.733L241.615 240.54Z" fill="#2BE6FF"/>
<path opacity="0.8" d="M259.793 206.424L260.899 206.769C272.599 210.554 281.557 214.697 287.773 219.199C293.988 223.701 298.576 228.774 301.536 234.418C304.496 240.062 306.849 246.46 308.596 253.614C309.677 257.93 311.273 262.002 313.383 265.83C315.555 269.677 318.379 273.053 321.856 275.959C325.314 278.926 329.47 281.167 334.325 282.681C340.348 284.56 346.013 284.776 351.319 283.33C356.626 281.883 361.216 279.168 365.089 275.184C368.962 271.199 371.8 266.319 373.602 260.542C375.174 255.503 375.644 250.322 375.012 244.999C374.379 239.677 372.309 234.749 368.8 230.215C365.292 225.681 359.988 222.037 352.89 219.283L360.137 196.053C370.431 199.804 378.53 205.298 384.432 212.534C390.315 219.832 393.958 228.15 395.36 237.489C396.743 246.89 395.882 256.568 392.776 266.524C389.402 277.34 384.317 286.071 377.523 292.719C370.709 299.427 362.873 303.794 354.015 305.818C345.137 307.904 335.904 307.451 326.317 304.46C319.557 302.351 313.768 299.399 308.95 295.603C304.114 291.868 300.148 287.394 297.054 282.181C293.941 277.028 291.569 271.231 289.937 264.787C288.244 258.325 286.032 252.88 283.299 248.453C280.628 244.046 276.972 240.309 272.331 237.243C267.691 234.177 261.579 231.393 253.997 228.893L252.891 228.548L259.793 206.424Z" fill="#2BE6FF"/>
</g>
<path opacity="0.8" d="M218.658 163.616L217.896 165.465L219.745 166.228L241.17 175.063L243.019 175.826L243.781 173.977L244.217 172.92C247.335 165.695 250.564 160.031 253.88 155.867C257.176 151.729 260.995 148.615 265.335 146.486L265.343 146.482L265.35 146.478C269.78 144.26 275.197 142.588 281.637 141.499C288.369 140.417 294.541 138.515 300.14 135.778C305.831 133.05 310.839 129.349 315.154 124.683C319.55 120.02 323.125 114.302 325.902 107.568C329.853 97.9887 331.186 88.4737 329.841 79.058C328.556 69.6713 324.74 61.1397 318.441 53.4903C312.177 45.8342 303.639 39.8177 292.919 35.3967C283.027 31.3175 273.165 29.5383 263.35 30.1017L263.345 30.102C253.566 30.6924 244.615 33.6976 236.527 39.1097L236.527 39.1097L236.518 39.1161C228.44 44.5886 222.034 52.4714 217.259 62.6615L216.37 64.5598L218.308 65.3591L240.804 74.6366L242.532 75.3491L243.36 73.6735C246.622 67.0692 250.508 62.4352 254.944 59.5929C259.488 56.6815 264.231 55.1783 269.201 55.0316C274.282 54.8816 279.12 55.7594 283.736 57.663C289.067 59.8613 293.41 62.9438 296.813 66.896C300.207 70.8387 302.347 75.3233 303.254 80.3814C304.147 85.3671 303.503 90.6029 301.221 96.1357C299.374 100.615 296.918 104.32 293.873 107.291L293.863 107.3L293.854 107.309C290.82 110.346 287.409 112.718 283.613 114.438C279.779 116.127 275.752 117.306 271.53 117.974C264.116 119.1 257.375 120.916 251.322 123.434C245.1 126.023 239.399 130.351 234.202 136.329C228.972 142.346 223.954 151.116 219.108 162.526L219.104 162.535L219.1 162.545L218.658 163.616ZM219.354 225.088L219.362 225.087L219.369 225.086C222.739 224.555 225.788 223.262 228.486 221.215C231.275 219.168 233.346 216.503 234.684 213.26C236.705 208.359 236.68 203.378 234.625 198.441C232.571 193.503 229.057 189.974 224.155 187.953C219.254 185.932 214.273 185.957 209.336 188.011C204.398 190.065 200.869 193.58 198.848 198.482C196.827 203.383 196.852 208.363 198.906 213.301C200.96 218.239 204.475 221.767 209.377 223.789C212.662 225.144 216.001 225.593 219.354 225.088Z" fill="#5CFF6D" stroke="#D86060" stroke-width="4"/>
<path opacity="0.8" d="M182.667 180.443L183.701 182.155L185.413 181.122L205.254 169.144L206.966 168.111L205.932 166.398L205.342 165.42C201.385 158.618 198.749 152.654 197.372 147.513C196.004 142.403 195.769 137.481 196.637 132.724L196.638 132.716L196.64 132.708C197.489 127.827 199.364 122.478 202.317 116.651C205.448 110.595 207.587 104.501 208.714 98.3716C209.904 92.1734 209.904 85.946 208.717 79.7028C207.579 73.3957 205.107 67.1217 201.342 60.8855C195.987 52.0157 189.129 45.2878 180.759 40.773C172.446 36.226 163.316 34.2228 153.42 34.7412C143.539 35.2283 133.626 38.5176 123.699 44.5106C114.539 50.0402 107.246 56.9138 101.865 65.141L101.862 65.1459C96.5245 73.3602 93.6204 82.3448 93.1652 92.0658L93.1652 92.0658L93.1647 92.0772C92.7642 101.826 95.2952 111.663 100.652 121.56L101.65 123.403L103.444 122.32L124.277 109.744L125.877 108.778L125.021 107.116C121.65 100.567 120.233 94.6874 120.584 89.4307C120.944 84.0461 122.554 79.3385 125.391 75.2546C128.29 71.0798 131.872 67.7106 136.147 65.1302C141.083 62.1503 146.143 60.4898 151.344 60.1027C156.532 59.7166 161.411 60.6616 166.017 62.9391C170.558 65.1839 174.385 68.8144 177.478 73.938C179.982 78.086 181.502 82.2634 182.08 86.478L182.082 86.4909L182.084 86.5038C182.723 90.7487 182.603 94.9022 181.73 98.9765C180.809 103.064 179.364 107.003 177.391 110.795C173.89 117.427 171.343 123.927 169.77 130.292C168.154 136.833 168.245 143.991 169.964 151.724C171.694 159.506 175.763 168.754 182.058 179.433L182.063 179.442L182.068 179.451L182.667 180.443Z" fill="#5CFF6D" stroke="#D86060" stroke-width="4"/>
<path opacity="0.8" d="M176.851 219.386L178.85 219.447L178.911 217.448L179.62 194.283L179.682 192.284L177.683 192.223L176.541 192.188C168.68 191.819 162.24 190.796 157.174 189.162C152.14 187.538 147.879 185.064 144.355 181.753L144.349 181.748L144.343 181.742C140.704 178.38 137.229 173.901 133.938 168.259C130.551 162.342 126.593 157.238 122.058 152.964C117.497 148.601 112.267 145.222 106.379 142.83C100.464 140.362 93.8529 139.033 86.5718 138.811C76.2161 138.494 66.843 140.602 58.508 145.182C50.1771 149.696 43.5395 156.276 38.6036 164.87C33.6499 173.433 31.0322 183.544 30.6775 195.134C30.3501 205.829 32.1648 215.685 36.1544 224.67L36.1568 224.675C40.1589 233.616 46.1287 240.932 54.0462 246.59L54.0462 246.59L54.0556 246.597C62.0258 252.224 71.6618 255.438 82.8812 256.311L84.9713 256.473L85.0354 254.378L85.7799 230.055L85.8371 228.187L83.9771 228.003C76.6465 227.28 70.9394 225.279 66.7149 222.131C62.3877 218.907 59.3079 214.999 57.4173 210.4C55.4845 205.699 54.5989 200.862 54.7517 195.871C54.9281 190.108 56.2801 184.957 58.7778 180.378C61.2695 175.811 64.7108 172.227 69.1238 169.594C73.4736 166.999 78.6002 165.755 84.5822 165.938C89.4252 166.086 93.7587 167.077 97.6124 168.879L97.6242 168.884L97.6361 168.889C101.548 170.657 104.972 173.012 107.92 175.957C110.853 178.949 113.376 182.3 115.491 186.016C119.161 192.556 123.237 198.222 127.729 202.998C132.346 207.906 138.408 211.714 145.835 214.468C153.31 217.239 163.286 218.841 175.672 219.35L175.682 219.35L175.693 219.35L176.851 219.386Z" fill="#5CFF6D" stroke="#D86060" stroke-width="4"/>
<path opacity="0.8" d="M205.776 246.969L206.903 245.316L205.25 244.19L186.102 231.134L184.449 230.007L183.323 231.66L182.679 232.604C178.141 239.033 173.815 243.912 169.713 247.304C165.636 250.675 161.259 252.936 156.573 254.127L156.565 254.129L156.557 254.131C151.765 255.391 146.121 255.912 139.594 255.652C132.784 255.326 126.352 255.917 120.31 257.443C114.179 258.942 108.517 261.534 103.334 265.211C98.0725 268.87 93.3969 273.73 89.2934 279.749C83.4569 288.309 80.1938 297.345 79.5724 306.835C78.8978 316.286 80.8762 325.421 85.4664 334.204C90.0217 342.985 97.1384 350.63 106.719 357.162C115.56 363.19 124.845 366.961 134.565 368.429L134.571 368.43C144.262 369.864 153.64 368.765 162.668 365.133L162.668 365.133L162.679 365.129C171.71 361.436 179.601 355.04 186.37 346.05L187.631 344.376L185.899 343.195L165.794 329.487L164.249 328.434L163.095 329.903C158.543 335.695 153.786 339.43 148.86 341.299C143.815 343.213 138.864 343.708 133.97 342.828C128.967 341.93 124.413 340.075 120.288 337.262C115.524 334.014 111.908 330.104 109.391 325.536C106.88 320.979 105.709 316.15 105.863 311.014C106.014 305.951 107.722 300.96 111.094 296.015C113.823 292.012 116.989 288.891 120.581 286.611L120.592 286.604L120.603 286.597C124.196 284.249 128.023 282.629 132.091 281.727C136.191 280.864 140.374 280.539 144.643 280.754C152.131 281.177 159.101 280.788 165.543 279.569C172.164 278.316 178.634 275.254 184.95 270.473C191.306 265.661 198.021 258.112 205.111 247.943L205.117 247.935L205.123 247.926L205.776 246.969Z" fill="#5CFF6D" stroke="#D86060" stroke-width="4"/>
<path opacity="0.8" d="M243.516 239.92L242.895 238.018L240.994 238.639L218.963 245.832L217.062 246.453L217.682 248.354L218.037 249.44C220.357 256.96 221.58 263.364 221.762 268.684C221.942 273.971 221.06 278.819 219.142 283.257L219.139 283.265L219.136 283.272C217.208 287.836 214.174 292.624 209.983 297.635C205.566 302.829 202.108 308.283 199.627 314C197.07 319.77 195.666 325.837 195.413 332.187C195.099 338.588 196.093 345.258 198.353 352.183C201.569 362.032 206.733 370.133 213.869 376.42C220.942 382.725 229.385 386.736 239.143 388.463C248.879 390.218 259.278 389.249 270.301 385.65C280.473 382.329 289.128 377.278 296.226 370.477L296.23 370.472C303.283 363.674 308.139 355.576 310.775 346.208L310.776 346.208L310.779 346.197C313.368 336.79 313.121 326.636 310.135 315.786L309.579 313.764L307.586 314.415L284.453 321.968L282.677 322.548L283.135 324.36C284.943 331.501 284.996 337.548 283.469 342.59C281.904 347.755 279.273 351.978 275.588 355.317C271.822 358.73 267.572 361.204 262.826 362.754C257.345 364.544 252.04 365.02 246.886 364.224C241.744 363.43 237.205 361.409 233.231 358.151C229.314 354.94 226.404 350.539 224.547 344.85C223.043 340.244 222.504 335.831 222.892 331.595L222.893 331.582L222.894 331.569C223.229 327.289 224.283 323.27 226.052 319.498C227.872 315.723 230.168 312.212 232.946 308.962C237.852 303.291 241.799 297.534 244.768 291.688C247.818 285.679 249.344 278.685 249.414 270.764C249.484 262.793 247.606 252.865 243.882 241.041L243.879 241.031L243.875 241.021L243.516 239.92Z" fill="#5CFF6D" stroke="#D86060" stroke-width="4"/>
<path opacity="0.8" d="M260.389 204.515L258.479 203.919L257.884 205.828L250.982 227.952L250.386 229.861L252.295 230.457L253.386 230.797C260.859 233.263 266.788 235.977 271.229 238.911C275.642 241.828 279.083 245.355 281.589 249.49L281.593 249.497L281.597 249.504C284.2 253.72 286.345 258.967 288 265.285C289.674 271.895 292.116 277.874 295.338 283.208C298.56 288.635 302.691 293.295 307.72 297.18C312.755 301.145 318.768 304.2 325.721 306.369C335.612 309.455 345.207 309.94 354.465 307.766C363.702 305.655 371.863 301.098 378.925 294.145C385.996 287.226 391.232 278.189 394.685 267.119C397.872 256.905 398.77 246.924 397.339 237.198L397.338 237.192C395.883 227.505 392.097 218.855 385.989 211.279L385.989 211.279L385.982 211.27C379.815 203.709 371.395 198.027 360.822 194.174L358.852 193.456L358.228 195.457L350.981 218.687L350.424 220.472L352.167 221.148C359.034 223.812 363.994 227.272 367.219 231.439C370.521 235.707 372.439 240.298 373.025 245.235C373.625 250.283 373.18 255.18 371.693 259.946C369.975 265.45 367.29 270.05 363.655 273.79C360.029 277.52 355.751 280.049 350.793 281.4C345.907 282.732 340.634 282.554 334.921 280.772C330.296 279.329 326.387 277.211 323.159 274.441L323.149 274.433L323.139 274.424C319.845 271.672 317.179 268.484 315.13 264.856C313.108 261.186 311.577 257.28 310.538 253.133C308.758 245.848 306.352 239.295 303.307 233.489C300.178 227.521 295.361 222.226 288.946 217.579C282.489 212.903 273.309 208.682 261.515 204.866L261.505 204.863L261.495 204.86L260.389 204.515Z" fill="#5CFF6D" stroke="#D86060" stroke-width="4"/>
<defs>
<filter id="filter0_f_184_234" x="0.640137" y="0" width="427.359" height="419.314" filterUnits="userSpaceOnUse" color-interpolation-filters="sRGB">
<feFlood flood-opacity="0" result="BackgroundImageFix"/>
<feBlend mode="normal" in="SourceGraphic" in2="BackgroundImageFix" result="shape"/>
<feGaussianBlur stdDeviation="16" result="effect1_foregroundBlur_184_234"/>
</filter>
</defs>
</svg>
