<svg width="341" height="555" viewBox="0 0 341 555" fill="none" xmlns="http://www.w3.org/2000/svg">
<g opacity="0.8" filter="url(#filter0_f_179_292)">
<path d="M128.016 391.141L128.323 389.032C131.809 366.693 136.74 349.228 143.116 336.638C149.491 324.048 157.375 314.25 166.767 307.242C176.159 300.234 187.097 294.109 199.581 288.866C207.105 285.654 214.037 281.578 220.377 276.638C226.734 271.582 232.048 265.476 236.317 258.322C240.704 251.184 243.57 242.989 244.915 233.735C246.584 222.255 245.337 211.906 241.175 202.689C237.012 193.472 230.753 185.923 222.397 180.044C214.042 174.164 204.358 170.424 193.347 168.823C183.742 167.427 174.198 168.073 164.716 170.762C155.235 173.45 146.885 178.636 139.668 186.319C132.451 194.002 127.369 204.686 124.423 218.373L80.144 211.936C83.9758 192.158 91.6076 175.864 103.039 163.052C114.588 150.257 128.638 141.235 145.191 135.986C161.86 130.754 179.683 129.517 198.66 132.276C219.276 135.272 236.603 141.978 250.639 152.391C264.793 162.822 274.989 175.787 281.229 191.287C287.585 206.804 289.435 223.699 286.779 241.973C284.906 254.859 281.22 266.225 275.722 276.071C270.341 285.935 263.364 294.43 254.793 301.557C246.338 308.701 236.497 314.687 225.269 319.514C214.024 324.458 204.778 330.052 197.531 336.295C190.301 342.421 184.574 350.141 180.349 359.455C176.124 368.769 172.839 380.671 170.493 395.163L170.187 397.271L128.016 391.141ZM135.386 498.431C126.718 497.171 119.731 492.985 114.425 485.874C109.119 478.763 107.096 470.874 108.356 462.205C109.616 453.537 113.802 446.55 120.913 441.244C128.023 435.938 135.913 433.915 144.581 435.175C153.25 436.435 160.237 440.621 165.543 447.732C170.849 454.842 172.872 462.732 171.612 471.4C170.777 477.14 168.547 482.199 164.92 486.576C161.411 490.97 157.042 494.282 151.813 496.512C146.719 498.643 141.243 499.282 135.386 498.431Z" fill="#30DF2D"/>
<path d="M128.016 391.141L124.058 390.566L123.482 394.524L127.441 395.099L128.016 391.141ZM128.323 389.032L124.371 388.416L124.367 388.436L124.364 388.457L128.323 389.032ZM143.116 336.638L139.547 334.831L139.547 334.831L143.116 336.638ZM166.767 307.242L169.159 310.448L169.159 310.448L166.767 307.242ZM199.581 288.866L201.13 292.554L201.141 292.55L201.152 292.545L199.581 288.866ZM220.377 276.638L222.836 279.794L222.852 279.781L222.867 279.769L220.377 276.638ZM236.317 258.322L232.909 256.227L232.896 256.25L232.882 256.272L236.317 258.322ZM164.716 170.762L163.625 166.913L163.625 166.913L164.716 170.762ZM139.668 186.319L142.584 189.058L142.584 189.058L139.668 186.319ZM124.423 218.373L123.848 222.331L127.547 222.869L128.333 219.214L124.423 218.373ZM80.144 211.936L76.217 211.175L75.4195 215.291L79.5686 215.894L80.144 211.936ZM103.039 163.052L100.07 160.372L100.062 160.38L100.055 160.389L103.039 163.052ZM145.191 135.986L143.993 132.17L143.981 132.173L145.191 135.986ZM250.639 152.391L248.256 155.604L248.266 155.611L250.639 152.391ZM281.229 191.287L277.518 192.781L277.522 192.792L277.527 192.803L281.229 191.287ZM275.722 276.071L272.23 274.121L272.22 274.138L272.211 274.156L275.722 276.071ZM254.793 301.557L252.235 298.481L252.223 298.492L252.211 298.502L254.793 301.557ZM225.269 319.514L223.689 315.839L223.674 315.846L223.659 315.852L225.269 319.514ZM197.531 336.295L200.117 339.347L200.129 339.336L200.142 339.325L197.531 336.295ZM170.493 395.163L166.545 394.523L166.539 394.555L166.535 394.587L170.493 395.163ZM170.187 397.271L169.611 401.229L173.57 401.805L174.145 397.846L170.187 397.271ZM114.425 485.874L117.631 483.482L117.631 483.482L114.425 485.874ZM120.913 441.244L123.305 444.45L123.305 444.45L120.913 441.244ZM164.92 486.576L161.84 484.024L161.817 484.051L161.795 484.08L164.92 486.576ZM151.813 496.512L153.356 500.203L153.37 500.197L153.383 500.192L151.813 496.512ZM131.975 391.716L132.281 389.608L124.364 388.457L124.058 390.566L131.975 391.716ZM132.275 389.649C135.731 367.506 140.577 350.505 146.684 338.445L139.547 334.831C132.903 347.951 127.888 365.879 124.371 388.416L132.275 389.649ZM146.684 338.445C152.837 326.295 160.353 317.018 169.159 310.448L164.375 304.036C154.397 311.481 146.146 321.802 139.547 334.831L146.684 338.445ZM169.159 310.448C178.254 303.662 188.9 297.69 201.13 292.554L198.032 285.178C185.294 290.528 174.064 296.806 164.375 304.036L169.159 310.448ZM201.152 292.545C208.987 289.2 216.219 284.949 222.836 279.794L217.919 273.483C211.856 278.207 205.223 282.108 198.01 285.188L201.152 292.545ZM222.867 279.769C229.612 274.404 235.242 267.929 239.752 260.372L232.882 256.272C228.853 263.023 223.857 268.759 217.887 273.508L222.867 279.769ZM239.725 260.416C244.428 252.764 247.459 244.04 248.874 234.31L240.957 233.159C239.681 241.938 236.98 249.605 232.909 256.227L239.725 260.416ZM248.874 234.31C250.635 222.189 249.341 211.054 244.82 201.043L237.529 204.335C241.333 212.759 242.532 222.321 240.957 233.159L248.874 234.31ZM244.82 201.043C240.36 191.166 233.634 183.059 224.699 176.772L220.096 183.315C227.872 188.787 233.664 195.777 237.529 204.335L244.82 201.043ZM224.699 176.772C215.785 170.5 205.499 166.548 193.923 164.865L192.772 172.782C203.218 174.3 212.298 177.828 220.096 183.315L224.699 176.772ZM193.923 164.865C183.751 163.386 173.64 164.074 163.625 166.913L165.808 174.61C174.756 172.073 183.732 171.468 192.772 172.782L193.923 164.865ZM163.625 166.913C153.398 169.814 144.431 175.407 136.753 183.58L142.584 189.058C149.34 181.865 157.072 177.087 165.808 174.61L163.625 166.913ZM136.753 183.58C128.9 191.94 123.563 203.36 120.512 217.531L128.333 219.214C131.175 206.012 136.002 196.064 142.584 189.058L136.753 183.58ZM124.998 214.414L80.7194 207.978L79.5686 215.894L123.848 222.331L124.998 214.414ZM84.0709 212.697C87.7898 193.503 95.1495 177.902 106.024 165.715L100.055 160.389C88.0657 173.825 80.1619 190.814 76.217 211.175L84.0709 212.697ZM106.008 165.732C117.078 153.469 130.519 144.835 146.4 139.799L143.981 132.173C126.758 137.636 112.098 147.046 100.07 160.372L106.008 165.732ZM146.389 139.803C162.431 134.767 179.643 133.553 198.084 136.234L199.235 128.317C179.723 125.481 161.289 126.741 143.993 132.17L146.389 139.803ZM198.084 136.234C218.171 139.154 234.845 145.654 248.256 155.604L253.022 149.179C238.361 138.302 220.381 131.391 199.235 128.317L198.084 136.234ZM248.266 155.611C261.855 165.625 271.57 178.006 277.518 192.781L284.939 189.793C278.408 173.568 267.73 160.018 253.012 149.171L248.266 155.611ZM277.527 192.803C283.586 207.593 285.385 223.758 282.821 241.398L290.737 242.549C293.486 223.641 291.585 206.015 284.93 189.771L277.527 192.803ZM282.821 241.398C281.007 253.874 277.456 264.761 272.23 274.121L279.214 278.021C284.984 267.688 288.805 255.843 290.737 242.549L282.821 241.398ZM272.211 274.156C267.069 283.579 260.416 291.68 252.235 298.481L257.35 304.633C266.313 297.18 273.612 288.29 279.233 277.987L272.211 274.156ZM252.211 298.502C244.088 305.366 234.592 311.152 223.689 315.839L226.849 323.189C238.402 318.222 248.589 312.036 257.374 304.612L252.211 298.502ZM223.659 315.852C212.149 320.913 202.539 326.701 194.92 333.264L200.142 339.325C207.017 333.403 215.9 328.003 226.879 323.176L223.659 315.852ZM194.945 333.243C187.229 339.781 181.156 347.993 176.706 357.802L183.992 361.107C187.992 352.288 193.373 345.06 200.117 339.347L194.945 333.243ZM176.706 357.802C172.287 367.545 168.925 379.82 166.545 394.523L174.442 395.802C176.753 381.522 179.962 369.992 183.992 361.107L176.706 357.802ZM166.535 394.587L166.228 396.696L174.145 397.846L174.452 395.738L166.535 394.587ZM170.762 393.313L128.592 387.183L127.441 395.099L169.611 401.229L170.762 393.313ZM135.962 494.472C128.358 493.367 122.311 489.755 117.631 483.482L111.219 488.266C117.15 496.215 125.078 500.974 134.811 502.389L135.962 494.472ZM117.631 483.482C112.95 477.209 111.209 470.384 112.314 462.781L104.398 461.63C102.983 471.363 105.288 480.318 111.219 488.266L117.631 483.482ZM112.314 462.781C113.42 455.177 117.032 449.13 123.305 444.45L118.52 438.038C110.572 443.969 105.813 451.897 104.398 461.63L112.314 462.781ZM123.305 444.45C129.578 439.769 136.403 438.028 144.006 439.133L145.157 431.217C135.424 429.802 126.469 432.107 118.52 438.038L123.305 444.45ZM144.006 439.133C151.609 440.239 157.656 443.851 162.337 450.124L168.749 445.339C162.818 437.391 154.89 432.632 145.157 431.217L144.006 439.133ZM162.337 450.124C167.018 456.397 168.759 463.222 167.653 470.825L175.57 471.976C176.985 462.243 174.68 453.288 168.749 445.339L162.337 450.124ZM167.653 470.825C166.922 475.853 164.988 480.224 161.84 484.024L168 489.128C172.106 484.173 174.632 478.427 175.57 471.976L167.653 470.825ZM161.795 484.08C158.703 487.951 154.871 490.86 150.244 492.833L153.383 500.192C159.213 497.705 164.119 493.989 168.046 489.072L161.795 484.08ZM150.27 492.822C145.893 494.653 141.155 495.227 135.962 494.472L134.811 502.389C141.332 503.337 147.545 502.633 153.356 500.203L150.27 492.822Z" fill="white"/>
</g>
<path d="M128.016 391.141L128.323 389.032C131.809 366.693 136.74 349.228 143.116 336.638C149.491 324.048 157.375 314.25 166.767 307.242C176.159 300.234 187.097 294.109 199.581 288.866C207.105 285.654 214.037 281.578 220.377 276.638C226.734 271.582 232.048 265.476 236.317 258.322C240.704 251.184 243.57 242.989 244.915 233.735C246.584 222.255 245.337 211.906 241.175 202.689C237.012 193.472 230.753 185.923 222.397 180.044C214.042 174.164 204.358 170.424 193.347 168.823C183.742 167.427 174.198 168.073 164.716 170.762C155.235 173.45 146.885 178.636 139.668 186.319C132.451 194.002 127.369 204.686 124.423 218.373L80.144 211.936C83.9758 192.158 91.6076 175.864 103.039 163.052C114.588 150.257 128.638 141.235 145.191 135.986C161.86 130.754 179.683 129.517 198.66 132.276C219.276 135.272 236.603 141.978 250.639 152.391C264.793 162.822 274.989 175.787 281.229 191.287C287.585 206.804 289.435 223.699 286.779 241.973C284.906 254.859 281.22 266.225 275.722 276.071C270.341 285.935 263.364 294.43 254.793 301.557C246.338 308.701 236.497 314.687 225.269 319.514C214.024 324.458 204.778 330.052 197.531 336.295C190.301 342.421 184.574 350.141 180.349 359.455C176.124 368.769 172.839 380.671 170.493 395.163L170.187 397.271L128.016 391.141ZM135.386 498.431C126.718 497.171 119.731 492.985 114.425 485.874C109.119 478.763 107.096 470.874 108.356 462.205C109.616 453.537 113.802 446.55 120.913 441.244C128.023 435.938 135.913 433.915 144.581 435.175C153.25 436.435 160.237 440.621 165.543 447.732C170.849 454.842 172.872 462.732 171.612 471.4C170.777 477.14 168.547 482.199 164.92 486.576C161.411 490.97 157.042 494.282 151.813 496.512C146.719 498.643 141.243 499.282 135.386 498.431Z" fill="#FF3434"/>
<path d="M128.016 391.141L124.058 390.566L123.482 394.524L127.441 395.099L128.016 391.141ZM128.323 389.032L124.371 388.416L124.367 388.436L124.364 388.457L128.323 389.032ZM143.116 336.638L139.547 334.831L139.547 334.831L143.116 336.638ZM166.767 307.242L169.159 310.448L169.159 310.448L166.767 307.242ZM199.581 288.866L201.13 292.554L201.141 292.55L201.152 292.545L199.581 288.866ZM220.377 276.638L222.836 279.794L222.852 279.781L222.867 279.769L220.377 276.638ZM236.317 258.322L232.909 256.227L232.896 256.25L232.882 256.272L236.317 258.322ZM164.716 170.762L163.625 166.913L163.625 166.913L164.716 170.762ZM139.668 186.319L142.584 189.058L142.584 189.058L139.668 186.319ZM124.423 218.373L123.848 222.331L127.547 222.869L128.333 219.214L124.423 218.373ZM80.144 211.936L76.217 211.175L75.4195 215.291L79.5686 215.894L80.144 211.936ZM103.039 163.052L100.07 160.372L100.062 160.38L100.055 160.389L103.039 163.052ZM145.191 135.986L143.993 132.17L143.981 132.173L145.191 135.986ZM250.639 152.391L248.256 155.604L248.266 155.611L250.639 152.391ZM281.229 191.287L277.518 192.781L277.522 192.792L277.527 192.803L281.229 191.287ZM275.722 276.071L272.23 274.121L272.22 274.138L272.211 274.156L275.722 276.071ZM254.793 301.557L252.235 298.481L252.223 298.492L252.211 298.502L254.793 301.557ZM225.269 319.514L223.689 315.839L223.674 315.846L223.659 315.852L225.269 319.514ZM197.531 336.295L200.117 339.347L200.129 339.336L200.142 339.325L197.531 336.295ZM170.493 395.163L166.545 394.523L166.539 394.555L166.535 394.587L170.493 395.163ZM170.187 397.271L169.611 401.229L173.57 401.805L174.145 397.846L170.187 397.271ZM114.425 485.874L117.631 483.482L117.631 483.482L114.425 485.874ZM120.913 441.244L123.305 444.45L123.305 444.45L120.913 441.244ZM164.92 486.576L161.84 484.024L161.817 484.051L161.795 484.08L164.92 486.576ZM151.813 496.512L153.356 500.203L153.37 500.197L153.383 500.192L151.813 496.512ZM131.975 391.716L132.281 389.608L124.364 388.457L124.058 390.566L131.975 391.716ZM132.275 389.649C135.731 367.506 140.577 350.505 146.684 338.445L139.547 334.831C132.903 347.951 127.888 365.879 124.371 388.416L132.275 389.649ZM146.684 338.445C152.837 326.295 160.353 317.018 169.159 310.448L164.375 304.036C154.397 311.481 146.146 321.802 139.547 334.831L146.684 338.445ZM169.159 310.448C178.254 303.662 188.9 297.69 201.13 292.554L198.032 285.178C185.294 290.528 174.064 296.806 164.375 304.036L169.159 310.448ZM201.152 292.545C208.987 289.2 216.219 284.949 222.836 279.794L217.919 273.483C211.856 278.207 205.223 282.108 198.01 285.188L201.152 292.545ZM222.867 279.769C229.612 274.404 235.242 267.929 239.752 260.372L232.882 256.272C228.853 263.023 223.857 268.759 217.887 273.508L222.867 279.769ZM239.725 260.416C244.428 252.764 247.459 244.04 248.874 234.31L240.957 233.159C239.681 241.938 236.98 249.605 232.909 256.227L239.725 260.416ZM248.874 234.31C250.635 222.189 249.341 211.054 244.82 201.043L237.529 204.335C241.333 212.759 242.532 222.321 240.957 233.159L248.874 234.31ZM244.82 201.043C240.36 191.166 233.634 183.059 224.699 176.772L220.096 183.315C227.872 188.787 233.664 195.777 237.529 204.335L244.82 201.043ZM224.699 176.772C215.785 170.5 205.499 166.548 193.923 164.865L192.772 172.782C203.218 174.3 212.298 177.828 220.096 183.315L224.699 176.772ZM193.923 164.865C183.751 163.386 173.64 164.074 163.625 166.913L165.808 174.61C174.756 172.073 183.732 171.468 192.772 172.782L193.923 164.865ZM163.625 166.913C153.398 169.814 144.431 175.407 136.753 183.58L142.584 189.058C149.34 181.865 157.072 177.087 165.808 174.61L163.625 166.913ZM136.753 183.58C128.9 191.94 123.563 203.36 120.512 217.531L128.333 219.214C131.175 206.012 136.002 196.064 142.584 189.058L136.753 183.58ZM124.998 214.414L80.7194 207.978L79.5686 215.894L123.848 222.331L124.998 214.414ZM84.0709 212.697C87.7898 193.503 95.1495 177.902 106.024 165.715L100.055 160.389C88.0657 173.825 80.1619 190.814 76.217 211.175L84.0709 212.697ZM106.008 165.732C117.078 153.469 130.519 144.835 146.4 139.799L143.981 132.173C126.758 137.636 112.098 147.046 100.07 160.372L106.008 165.732ZM146.389 139.803C162.431 134.767 179.643 133.553 198.084 136.234L199.235 128.317C179.723 125.481 161.289 126.741 143.993 132.17L146.389 139.803ZM198.084 136.234C218.171 139.154 234.845 145.654 248.256 155.604L253.022 149.179C238.361 138.302 220.381 131.391 199.235 128.317L198.084 136.234ZM248.266 155.611C261.855 165.625 271.57 178.006 277.518 192.781L284.939 189.793C278.408 173.568 267.73 160.018 253.012 149.171L248.266 155.611ZM277.527 192.803C283.586 207.593 285.385 223.758 282.821 241.398L290.737 242.549C293.486 223.641 291.585 206.015 284.93 189.771L277.527 192.803ZM282.821 241.398C281.007 253.874 277.456 264.761 272.23 274.121L279.214 278.021C284.984 267.688 288.805 255.843 290.737 242.549L282.821 241.398ZM272.211 274.156C267.069 283.579 260.416 291.68 252.235 298.481L257.35 304.633C266.313 297.18 273.612 288.29 279.233 277.987L272.211 274.156ZM252.211 298.502C244.088 305.366 234.592 311.152 223.689 315.839L226.849 323.189C238.402 318.222 248.589 312.036 257.374 304.612L252.211 298.502ZM223.659 315.852C212.149 320.913 202.539 326.701 194.92 333.264L200.142 339.325C207.017 333.403 215.9 328.003 226.879 323.176L223.659 315.852ZM194.945 333.243C187.229 339.781 181.156 347.993 176.706 357.802L183.992 361.107C187.992 352.288 193.373 345.06 200.117 339.347L194.945 333.243ZM176.706 357.802C172.287 367.545 168.925 379.82 166.545 394.523L174.442 395.802C176.753 381.522 179.962 369.992 183.992 361.107L176.706 357.802ZM166.535 394.587L166.228 396.696L174.145 397.846L174.452 395.738L166.535 394.587ZM170.762 393.313L128.592 387.183L127.441 395.099L169.611 401.229L170.762 393.313ZM135.962 494.472C128.358 493.367 122.311 489.755 117.631 483.482L111.219 488.266C117.15 496.215 125.078 500.974 134.811 502.389L135.962 494.472ZM117.631 483.482C112.95 477.209 111.209 470.384 112.314 462.781L104.398 461.63C102.983 471.363 105.288 480.318 111.219 488.266L117.631 483.482ZM112.314 462.781C113.42 455.177 117.032 449.13 123.305 444.45L118.52 438.038C110.572 443.969 105.813 451.897 104.398 461.63L112.314 462.781ZM123.305 444.45C129.578 439.769 136.403 438.028 144.006 439.133L145.157 431.217C135.424 429.802 126.469 432.107 118.52 438.038L123.305 444.45ZM144.006 439.133C151.609 440.239 157.656 443.851 162.337 450.124L168.749 445.339C162.818 437.391 154.89 432.632 145.157 431.217L144.006 439.133ZM162.337 450.124C167.018 456.397 168.759 463.222 167.653 470.825L175.57 471.976C176.985 462.243 174.68 453.288 168.749 445.339L162.337 450.124ZM167.653 470.825C166.922 475.853 164.988 480.224 161.84 484.024L168 489.128C172.106 484.173 174.632 478.427 175.57 471.976L167.653 470.825ZM161.795 484.08C158.703 487.951 154.871 490.86 150.244 492.833L153.383 500.192C159.213 497.705 164.119 493.989 168.046 489.072L161.795 484.08ZM150.27 492.822C145.893 494.653 141.155 495.227 135.962 494.472L134.811 502.389C141.332 503.337 147.545 502.633 153.356 500.203L150.27 492.822Z" fill="#FBFF47"/>
<defs>
<filter id="filter0_f_179_292" x="0.50293" y="77.0527" width="340.069" height="477.623" filterUnits="userSpaceOnUse" color-interpolation-filters="sRGB">
<feFlood flood-opacity="0" result="BackgroundImageFix"/>
<feBlend mode="normal" in="SourceGraphic" in2="BackgroundImageFix" result="shape"/>
<feGaussianBlur stdDeviation="20" result="effect1_foregroundBlur_179_292"/>
</filter>
</defs>
</svg>
